<svg width="146" height="43" viewBox="0 0 146 43" fill="none" xmlns="http://www.w3.org/2000/svg">
<rect x="0.675769" y="0.749622" width="143.91" height="41.7254" rx="2.12885" fill="#373F4A" stroke="#373F4A" stroke-width="0.851538"/>
<path d="M11.3654 17.7158C9.09308 21.6633 10.5351 27.6354 13.0405 31.2624C14.2932 33.0831 15.575 34.7146 17.3084 34.7146H17.4104C18.0945 34.6635 18.7622 34.4804 19.3768 34.1756C20.1092 33.8234 20.9094 33.6345 21.722 33.6221C22.4961 33.6307 23.2581 33.815 23.9506 34.161C24.6149 34.4953 25.3481 34.6699 26.0918 34.6709C28.0437 34.6709 29.2527 32.8792 30.316 31.3352C31.1088 30.1667 31.7316 28.8916 32.1659 27.548C32.1849 27.4978 32.1834 27.442 32.1615 27.3929C32.1397 27.3439 32.0994 27.3053 32.0494 27.2858C31.0393 26.8613 30.1749 26.1516 29.5618 25.2436C28.9487 24.3356 28.6135 23.2686 28.5972 22.1731C28.6063 21.2046 28.861 20.2543 29.3373 19.4111C29.8137 18.5679 30.4963 17.8593 31.3211 17.3517C31.3634 17.3124 31.3937 17.2619 31.4085 17.206C31.4297 17.1497 31.4297 17.0876 31.4085 17.0312C30.8425 16.2234 30.0966 15.5582 29.2295 15.088C28.3625 14.6178 27.398 14.3556 26.4123 14.3219H25.9316C24.8484 14.3796 23.7858 14.6416 22.7999 15.0939C22.3407 15.3192 21.8493 15.4715 21.3432 15.5455C20.8066 15.4839 20.2845 15.3312 19.7992 15.0939C18.9394 14.658 18.0057 14.3863 17.0462 14.2928H16.9734C15.8243 14.3379 14.7059 14.6761 13.7244 15.2752C12.7428 15.8743 11.9308 16.7145 11.3654 17.7158Z" fill="white"/>
<path d="M26.4123 7.83998C24.8456 7.99029 23.3962 8.73582 22.3629 9.92295C21.8456 10.4969 21.4499 11.1696 21.1995 11.9006C20.9492 12.6316 20.8494 13.4057 20.9063 14.1763C20.9124 14.2282 20.9359 14.2766 20.9729 14.3136C21.0099 14.3506 21.0582 14.374 21.1102 14.3802H21.3869C22.1279 14.3477 22.8534 14.1567 23.5142 13.82C24.1751 13.4833 24.756 13.0087 25.2178 12.4283C26.2569 11.2187 26.7799 9.64964 26.6745 8.05848C26.6727 8.0265 26.6644 7.99522 26.65 7.9666C26.6357 7.93798 26.6156 7.91263 26.591 7.89213C26.5663 7.87163 26.5378 7.85642 26.507 7.84745C26.4763 7.83847 26.444 7.83593 26.4123 7.83998Z" fill="white"/>
<path d="M42.3915 7.6069H45.028C45.4772 7.55417 45.9326 7.59715 46.364 7.73302C46.7955 7.86889 47.1933 8.09457 47.5313 8.39521C47.8693 8.69585 48.1398 9.06464 48.3251 9.47733C48.5103 9.89002 48.6061 10.3373 48.6061 10.7896C48.6061 11.242 48.5103 11.6892 48.3251 12.1019C48.1398 12.5146 47.8693 12.8834 47.5313 13.184C47.1933 13.4847 46.7955 13.7103 46.364 13.8462C45.9326 13.9821 45.4772 14.0251 45.028 13.9723H42.3915V7.6069ZM44.9843 13.5499C45.3759 13.5993 45.7736 13.5647 46.1508 13.4486C46.5281 13.3325 46.8763 13.1374 47.1724 12.8763C47.4684 12.6152 47.7056 12.2941 47.868 11.9343C48.0304 11.5746 48.1144 11.1843 48.1144 10.7896C48.1144 10.3949 48.0304 10.0047 47.868 9.64488C47.7056 9.28511 47.4684 8.96401 47.1724 8.70293C46.8763 8.44185 46.5281 8.24676 46.1508 8.13062C45.7736 8.01448 45.3759 7.97995 44.9843 8.02932H42.8722V13.6082L44.9843 13.5499Z" fill="white"/>
<path d="M49.5434 11.6564C49.5259 11.1604 49.6571 10.6705 49.92 10.2496C50.1829 9.82861 50.5655 9.49579 51.0189 9.2938C51.4722 9.0918 51.9755 9.02984 52.4643 9.11585C52.9531 9.20186 53.405 9.43192 53.7622 9.77653C54.1193 10.1211 54.3654 10.5646 54.4688 11.05C54.5722 11.5354 54.5282 12.0406 54.3426 12.5009C54.1569 12.9611 53.8379 13.3554 53.4267 13.6332C53.0154 13.9109 52.5305 14.0595 52.0342 14.0598C51.7097 14.0779 51.385 14.0288 51.0804 13.9156C50.7759 13.8024 50.4979 13.6275 50.2641 13.4018C50.0302 13.1762 49.8455 12.9047 49.7215 12.6043C49.5975 12.304 49.5368 11.9813 49.5434 11.6564ZM54.0297 11.6564C54.0297 11.1271 53.8195 10.6195 53.4453 10.2453C53.071 9.87105 52.5634 9.6608 52.0342 9.6608C51.5049 9.6608 50.9973 9.87105 50.6231 10.2453C50.2489 10.6195 50.0386 11.1271 50.0386 11.6564C50.0386 12.1856 50.2489 12.6932 50.6231 13.0674C50.9973 13.4417 51.5049 13.6519 52.0342 13.6519C52.5634 13.6519 53.071 13.4417 53.4453 13.0674C53.8195 12.6932 54.0297 12.1856 54.0297 11.6564Z" fill="white"/>
<path d="M62.9297 9.28204L61.0507 14.0306H60.5991L58.924 9.90839L57.2489 14.0306H56.8119L54.9183 9.28204H55.3844L57.0304 13.5208L58.7346 9.28204H59.1425L60.8904 13.5062L62.5655 9.28204H62.9297Z" fill="white"/>
<path d="M68.4795 11.2484V14.0306H67.9988V11.2921C68.0265 11.0738 68.0044 10.8521 67.9341 10.6436C67.8638 10.4351 67.7472 10.2452 67.593 10.0882C67.4388 9.93117 67.251 9.81115 67.0438 9.73712C66.8366 9.66309 66.6153 9.63697 66.3965 9.66073C66.1469 9.63705 65.8952 9.66779 65.6587 9.75082C65.4221 9.83385 65.2064 9.9672 65.0264 10.1417C64.8464 10.3161 64.7064 10.5276 64.616 10.7614C64.5256 10.9952 64.487 11.2459 64.5029 11.4961V14.0306H64.0368V9.28201H64.4883V10.3016C64.6831 9.95854 64.9714 9.67781 65.3195 9.49215C65.6676 9.30648 66.0613 9.2235 66.4548 9.25287C66.7253 9.22362 66.9989 9.25488 67.2559 9.34439C67.5128 9.4339 67.7467 9.57942 67.9404 9.77042C68.1342 9.96142 68.2831 10.1931 68.3764 10.4487C68.4696 10.7044 68.5048 10.9775 68.4795 11.2484Z" fill="white"/>
<path d="M70.4313 7.28646H70.912V14.0306H70.4313V7.28646Z" fill="white"/>
<path d="M72.3686 11.6563C72.3511 11.1597 72.4827 10.6693 72.7462 10.248C73.0097 9.82671 73.3932 9.49389 73.8474 9.29231C74.3016 9.09073 74.8057 9.02961 75.2949 9.1168C75.7841 9.204 76.2361 9.43552 76.5927 9.78161C76.9492 10.1277 77.1941 10.5725 77.2959 11.0589C77.3976 11.5453 77.3516 12.051 77.1637 12.511C76.9757 12.971 76.6545 13.3643 76.2413 13.6403C75.8281 13.9163 75.3417 14.0624 74.8448 14.0598C74.5216 14.0758 74.1985 14.0252 73.8956 13.911C73.5927 13.7969 73.3166 13.6216 73.0843 13.3962C72.8521 13.1708 72.6687 12.9 72.5456 12.6007C72.4224 12.3014 72.3622 11.9799 72.3686 11.6563ZM76.8404 11.6563C76.8404 11.1271 76.6301 10.6195 76.2559 10.2453C75.8817 9.87102 75.3741 9.66077 74.8448 9.66077C74.3156 9.66077 73.808 9.87102 73.4337 10.2453C73.0595 10.6195 72.8493 11.1271 72.8493 11.6563C72.8493 12.1856 73.0595 12.6932 73.4337 13.0674C73.808 13.4417 74.3156 13.6519 74.8448 13.6519C75.3741 13.6519 75.8817 13.4417 76.2559 13.0674C76.6301 12.6932 76.8404 12.1856 76.8404 11.6563Z" fill="white"/>
<path d="M82.3755 11.0154V14.0306H81.9094V13.1858C81.7192 13.4813 81.4516 13.719 81.1357 13.8731C80.8198 14.0272 80.4678 14.0918 80.1178 14.0598C79.0107 14.0598 78.3407 13.5208 78.3407 12.7051C78.3407 11.8894 78.8068 11.3796 80.1906 11.3796H81.8948V11.0009C81.8948 10.1123 81.385 9.64623 80.4382 9.64623C79.8134 9.63999 79.2058 9.85111 78.7194 10.2434L78.4864 9.92299C79.0481 9.47495 79.749 9.23787 80.4674 9.25294C81.6909 9.25294 82.3755 9.85016 82.3755 11.0154ZM81.8948 12.6323V11.7438H80.2052C79.171 11.7438 78.7485 12.1516 78.7485 12.6906C78.7485 13.2295 79.2584 13.6956 80.2052 13.6956C80.5621 13.7142 80.916 13.622 81.2185 13.4316C81.5209 13.2413 81.7572 12.9621 81.8948 12.6323Z" fill="white"/>
<path d="M88.741 7.28646V14.0306H88.2749V12.909C88.0803 13.2722 87.7869 13.573 87.4287 13.7766C87.0704 13.9802 86.6619 14.0784 86.2502 14.0597C85.9346 14.0597 85.6221 13.9976 85.3305 13.8768C85.0389 13.756 84.7739 13.579 84.5508 13.3558C84.3276 13.1326 84.1505 12.8677 84.0298 12.5761C83.909 12.2845 83.8468 11.9719 83.8468 11.6563C83.8468 11.3407 83.909 11.0282 84.0298 10.7366C84.1505 10.445 84.3276 10.18 84.5508 9.95684C84.7739 9.73366 85.0389 9.55663 85.3305 9.43584C85.6221 9.31506 85.9346 9.25289 86.2502 9.25289C86.6575 9.23973 87.0608 9.33703 87.4172 9.5345C87.7737 9.73196 88.0701 10.0222 88.2749 10.3745V7.28646H88.741ZM88.2749 11.6563C88.2321 11.1546 88.0025 10.6873 87.6317 10.3467C87.2608 10.0061 86.7756 9.81714 86.2721 9.81714C85.7685 9.81714 85.2834 10.0061 84.9125 10.3467C84.5416 10.6873 84.312 11.1546 84.2692 11.6563C84.312 12.158 84.5416 12.6254 84.9125 12.9659C85.2834 13.3065 85.7685 13.4955 86.2721 13.4955C86.7756 13.4955 87.2608 13.3065 87.6317 12.9659C88.0025 12.6254 88.2321 12.158 88.2749 11.6563Z" fill="white"/>
<path d="M92.6447 11.6564C92.6273 11.1604 92.7584 10.6705 93.0213 10.2496C93.2842 9.82861 93.6669 9.49579 94.1202 9.2938C94.5735 9.0918 95.0769 9.02984 95.5656 9.11585C96.0544 9.20186 96.5064 9.43192 96.8635 9.77653C97.2207 10.1211 97.4667 10.5646 97.5701 11.05C97.6735 11.5354 97.6296 12.0406 97.4439 12.5009C97.2582 12.9611 96.9393 13.3554 96.528 13.6332C96.1167 13.9109 95.6318 14.0595 95.1355 14.0598C94.8111 14.0779 94.4864 14.0288 94.1818 13.9156C93.8772 13.8024 93.5993 13.6275 93.3654 13.4018C93.1316 13.1762 92.9469 12.9047 92.8228 12.6043C92.6988 12.304 92.6382 11.9813 92.6447 11.6564ZM97.1311 11.6564C97.1311 11.1271 96.9208 10.6195 96.5466 10.2453C96.1723 9.87105 95.6648 9.6608 95.1355 9.6608C94.6062 9.6608 94.0987 9.87105 93.7244 10.2453C93.3502 10.6195 93.1399 11.1271 93.1399 11.6564C93.1399 12.1856 93.3502 12.6932 93.7244 13.0674C94.0987 13.4417 94.6062 13.6519 95.1355 13.6519C95.6648 13.6519 96.1723 13.4417 96.5466 13.0674C96.9208 12.6932 97.1311 12.1856 97.1311 11.6564Z" fill="white"/>
<path d="M103.526 11.2485V14.0306H103.045V11.2922C103.073 11.0739 103.05 10.8521 102.98 10.6436C102.91 10.4351 102.793 10.2452 102.639 10.0882C102.485 9.93122 102.297 9.8112 102.09 9.73717C101.883 9.66314 101.661 9.63702 101.443 9.66077C101.194 9.6368 100.942 9.66745 100.707 9.75058C100.471 9.83371 100.256 9.96731 100.077 10.1421C99.898 10.3168 99.7594 10.5285 99.6707 10.7624C99.582 10.9963 99.5455 11.2467 99.5636 11.4961V14.0306H99.0829V9.28205H99.5345V10.3017C99.7303 9.95621 100.021 9.67393 100.372 9.48812C100.723 9.3023 101.12 9.2207 101.515 9.25292C101.785 9.22326 102.059 9.25436 102.315 9.34394C102.571 9.43352 102.804 9.57932 102.997 9.77065C103.19 9.96197 103.337 10.194 103.429 10.4497C103.52 10.7054 103.553 10.9783 103.526 11.2485Z" fill="white"/>
<path d="M110.415 13.7248C110.131 13.9621 109.766 14.0819 109.396 14.0598C109.218 14.0844 109.038 14.0688 108.867 14.0142C108.697 13.9596 108.541 13.8674 108.411 13.7443C108.28 13.6212 108.18 13.4705 108.116 13.3032C108.052 13.1359 108.026 12.9564 108.041 12.778V9.67536H107.138V9.28207H108.041V8.24787H108.522V9.28207H110.11V9.67536H108.493V12.7343C108.479 12.8601 108.493 12.9874 108.535 13.1068C108.577 13.2262 108.646 13.3346 108.735 13.4241C108.825 13.5136 108.933 13.5819 109.052 13.6238C109.172 13.6658 109.299 13.6803 109.425 13.6665C109.697 13.6836 109.967 13.6007 110.182 13.4334L110.415 13.7248Z" fill="white"/>
<path d="M116.155 11.2485V14.0306H115.674V11.2922C115.702 11.0739 115.679 10.8521 115.609 10.6436C115.539 10.4351 115.422 10.2452 115.268 10.0882C115.114 9.93119 114.926 9.81117 114.719 9.73714C114.512 9.66311 114.29 9.63699 114.072 9.66075C113.822 9.63707 113.57 9.66781 113.334 9.75084C113.097 9.83387 112.881 9.96722 112.701 10.1417C112.521 10.3162 112.381 10.5276 112.291 10.7614C112.201 10.9953 112.162 11.2459 112.178 11.4961V14.0306H111.712V7.28646H112.178V10.2725C112.377 9.93834 112.665 9.66601 113.009 9.48596C113.354 9.3059 113.742 9.22521 114.13 9.25289C114.4 9.22364 114.674 9.2549 114.931 9.34441C115.188 9.43392 115.422 9.57944 115.615 9.77044C115.809 9.96144 115.958 10.1931 116.051 10.4488C116.145 10.7044 116.18 10.9775 116.155 11.2485Z" fill="white"/>
<path d="M122.301 11.7583H118.034C118.043 12.0231 118.105 12.2833 118.217 12.5233C118.329 12.7634 118.489 12.9783 118.686 13.1551C118.883 13.332 119.114 13.4671 119.365 13.5525C119.616 13.6379 119.881 13.6717 120.146 13.6519C120.442 13.6628 120.737 13.6099 121.011 13.4968C121.285 13.3837 121.531 13.2131 121.733 12.9964L122.01 13.2878C121.771 13.5443 121.479 13.746 121.155 13.8793C120.831 14.0126 120.481 14.0741 120.131 14.0598C119.802 14.0839 119.471 14.0396 119.16 13.9295C118.848 13.8194 118.563 13.6459 118.322 13.4201C118.081 13.1942 117.89 12.9209 117.76 12.6173C117.63 12.3138 117.565 11.9865 117.567 11.6563C117.555 11.3387 117.609 11.022 117.724 10.7258C117.84 10.4297 118.015 10.1605 118.239 9.93506C118.463 9.70961 118.731 9.53269 119.027 9.41534C119.322 9.29798 119.639 9.2427 119.956 9.25293C120.271 9.24257 120.585 9.29749 120.878 9.41426C121.171 9.53103 121.437 9.70712 121.658 9.93146C121.88 10.1558 122.053 10.4235 122.166 10.7179C122.279 11.0122 122.33 11.3268 122.316 11.6418C122.316 11.6418 122.301 11.7146 122.301 11.7583ZM118.048 11.4087H121.85C121.808 10.9333 121.59 10.4907 121.238 10.1683C120.886 9.84595 120.426 9.66711 119.949 9.66711C119.472 9.66711 119.012 9.84595 118.66 10.1683C118.308 10.4907 118.09 10.9333 118.048 11.4087Z" fill="white"/>
<path d="M49.4268 28.0869H43.746L42.6244 30.5923H40.4978L45.6251 19.7405H47.6352L52.777 30.5923H50.563L49.4268 28.0869ZM48.7276 26.5429L46.5864 21.7944L44.4598 26.5429H48.7276Z" fill="white"/>
<path d="M63.2357 26.4555C63.2527 27.0287 63.1505 27.5991 62.9354 28.1307C62.7203 28.6622 62.397 29.1432 61.9861 29.5431C61.5752 29.9431 61.0856 30.2533 60.5485 30.4539C60.0113 30.6546 59.4383 30.7414 58.8658 30.7089C58.3493 30.7283 57.8344 30.6385 57.3549 30.4452C56.8755 30.2519 56.4423 29.9596 56.0837 29.5873V33.6075H54.0444V22.3187H55.9817V23.3966C56.3503 22.9974 56.8026 22.6845 57.3062 22.4806C57.8099 22.2766 58.3524 22.1865 58.895 22.2168C59.4643 22.1863 60.0339 22.2743 60.5675 22.4752C61.1011 22.676 61.5873 22.9854 61.9953 23.3838C62.4032 23.7822 62.7241 24.2609 62.9376 24.7896C63.1511 25.3183 63.2526 25.8856 63.2357 26.4555ZM61.1673 26.4555C61.1644 25.9456 61.0104 25.448 60.7247 25.0256C60.439 24.6033 60.0344 24.2751 59.5622 24.0826C59.09 23.8902 58.5714 23.842 58.0718 23.9444C57.5723 24.0467 57.1143 24.2948 56.7558 24.6574C56.3972 25.02 56.1543 25.4808 56.0576 25.9814C55.961 26.4821 56.015 27.0002 56.2127 27.4702C56.4105 27.9402 56.7433 28.341 57.1688 28.6219C57.5944 28.9028 58.0937 29.0512 58.6036 29.0483C58.9467 29.063 59.2891 29.0058 59.6087 28.8803C59.9284 28.7549 60.2182 28.5639 60.4597 28.3197C60.7011 28.0755 60.8888 27.7835 61.0107 27.4625C61.1325 27.1414 61.1859 26.7984 61.1673 26.4555Z" fill="white"/>
<path d="M74.3786 26.4555C74.3957 27.0287 74.2934 27.5991 74.0783 28.1307C73.8632 28.6622 73.5399 29.1432 73.129 29.5431C72.7181 29.9431 72.2286 30.2533 71.6914 30.4539C71.1543 30.6546 70.5813 30.7414 70.0088 30.7089C69.4922 30.7283 68.9774 30.6385 68.4979 30.4452C68.0185 30.2519 67.5853 29.9596 67.2266 29.5873V33.6075H65.1874V22.3187H67.1247V23.3966C67.4933 22.9974 67.9456 22.6845 68.4492 22.4806C68.9529 22.2766 69.4954 22.1865 70.0379 22.2168C70.6073 22.1863 71.1768 22.2743 71.7105 22.4752C72.2441 22.676 72.7303 22.9854 73.1382 23.3838C73.5462 23.7822 73.8671 24.2609 74.0806 24.7896C74.2941 25.3183 74.3956 25.8856 74.3786 26.4555ZM72.3102 26.4555C72.3074 25.9456 72.1533 25.448 71.8676 25.0256C71.5819 24.6033 71.1774 24.2751 70.7052 24.0826C70.233 23.8902 69.7143 23.842 69.2148 23.9444C68.7152 24.0467 68.2573 24.2948 67.8987 24.6574C67.5402 25.02 67.2973 25.4808 67.2006 25.9814C67.1039 26.4821 67.1579 27.0002 67.3557 27.4702C67.5535 27.9402 67.8862 28.341 68.3118 28.6219C68.7374 28.9028 69.2367 29.0512 69.7466 29.0483C70.0897 29.063 70.432 29.0058 70.7517 28.8803C71.0713 28.7549 71.3612 28.5639 71.6027 28.3197C71.8441 28.0755 72.0318 27.7835 72.1536 27.4625C72.2755 27.1414 72.3288 26.7984 72.3102 26.4555Z" fill="white"/>
<path d="M80.0304 29.4562L80.7587 27.8976C81.8529 28.6735 83.1608 29.0908 84.5022 29.092C86.2793 29.092 87.0221 28.4802 87.0221 27.6354C87.0221 25.2903 80.2634 26.8343 80.2634 22.7994C80.2634 21.0369 81.72 19.5512 84.8518 19.5512C86.1776 19.5258 87.4858 19.8579 88.639 20.5125L87.9689 22.1731C87.0156 21.6237 85.9374 21.3278 84.8372 21.3137C83.0747 21.3137 82.361 21.9692 82.361 22.7703C82.361 25.0863 89.1051 23.586 89.1051 27.5626C89.1051 29.3105 87.6485 30.7963 84.5022 30.7963C82.9064 30.8407 81.3387 30.3708 80.0304 29.4562Z" fill="white"/>
<path d="M96.2279 30.1408C95.6535 30.5313 94.9703 30.7302 94.276 30.7089C93.8862 30.767 93.4882 30.7365 93.1118 30.6196C92.7353 30.5027 92.3901 30.3024 92.1018 30.0336C91.8134 29.7649 91.5894 29.4346 91.4463 29.0673C91.3032 28.7 91.2448 28.3052 91.2754 27.9122V23.9211H89.8188V22.377H91.2754V20.4834H93.3147V22.377H95.6307V23.9211H93.3147V27.8685C93.2917 28.0327 93.3064 28.1999 93.3576 28.3576C93.4088 28.5152 93.4953 28.6591 93.6103 28.7784C93.7254 28.8977 93.8662 28.9893 94.0219 29.0462C94.1776 29.103 94.3442 29.1237 94.5091 29.1066C94.9184 29.1194 95.3213 29.0021 95.6598 28.7716L96.2279 30.1408Z" fill="white"/>
<path d="M96.8833 26.4555C96.8041 25.5226 97.0085 24.5874 97.4699 23.7727C97.9313 22.9579 98.628 22.3015 99.4688 21.8896C100.31 21.4776 101.255 21.3293 102.182 21.464C103.108 21.5987 103.973 22.0102 104.661 22.6446C105.35 23.279 105.831 24.1066 106.041 25.019C106.251 25.9314 106.181 26.886 105.839 27.7578C105.498 28.6295 104.901 29.3777 104.127 29.9043C103.352 30.4309 102.437 30.7113 101.501 30.7088C100.913 30.7549 100.323 30.6793 99.7658 30.4867C99.2089 30.294 98.6978 29.9886 98.2643 29.5893C97.8309 29.1901 97.4846 28.7057 97.2469 28.1665C97.0093 27.6272 96.8855 27.0448 96.8833 26.4555ZM104.079 26.4555C104.076 25.9462 103.922 25.4492 103.637 25.0271C103.352 24.6051 102.949 24.2769 102.477 24.084C102.006 23.8911 101.488 23.8421 100.989 23.9432C100.49 24.0443 100.032 24.291 99.6726 24.6522C99.3135 25.0133 99.0694 25.4727 98.9711 25.9724C98.8728 26.4722 98.9247 26.9898 99.1203 27.4601C99.3158 27.9303 99.6463 28.3321 100.07 28.6148C100.494 28.8974 100.991 29.0483 101.501 29.0483C101.845 29.0651 102.189 29.0095 102.51 28.8849C102.832 28.7604 103.124 28.5697 103.367 28.3253C103.61 28.0809 103.799 27.7882 103.921 27.4661C104.044 27.144 104.098 26.7997 104.079 26.4555Z" fill="white"/>
<path d="M113.096 22.1731V24.0667H112.63C112.294 24.0336 111.956 24.0746 111.638 24.1867C111.32 24.2988 111.031 24.4793 110.79 24.7155C110.55 24.9517 110.365 25.2378 110.247 25.5536C110.129 25.8693 110.082 26.2071 110.11 26.543V30.5632H108.07V22.3188H110.008V23.5278C110.365 23.0589 110.837 22.6886 111.377 22.4516C111.917 22.2147 112.508 22.1188 113.096 22.1731Z" fill="white"/>
<path d="M122.855 27.0674H116.052C116.198 27.6852 116.564 28.2287 117.081 28.5961C117.599 28.9635 118.233 29.1294 118.864 29.0629C119.298 29.081 119.731 29.0102 120.137 28.855C120.543 28.6997 120.912 28.4631 121.223 28.1598L122.301 29.3542C121.853 29.8177 121.31 30.1787 120.709 30.4125C120.108 30.6463 119.464 30.7474 118.82 30.7089C115.907 30.7089 114.028 28.9173 114.028 26.4556C114.019 25.8745 114.13 25.2978 114.354 24.7616C114.578 24.2253 114.91 23.7411 115.33 23.3392C115.749 22.9372 116.248 22.6262 116.793 22.4256C117.338 22.2249 117.919 22.139 118.5 22.1731C119.074 22.1425 119.649 22.2317 120.187 22.4349C120.725 22.6381 121.215 22.951 121.626 23.3537C122.037 23.7563 122.36 24.24 122.574 24.774C122.788 25.3079 122.888 25.8806 122.869 26.4556C122.899 26.6595 122.869 26.8926 122.855 27.0674ZM116.038 25.7855H120.961C120.881 25.2012 120.583 24.6688 120.126 24.2958C119.669 23.9228 119.088 23.7368 118.5 23.7754C117.913 23.7436 117.335 23.9321 116.88 24.3039C116.424 24.6757 116.124 25.2041 116.038 25.7855Z" fill="white"/>
</svg>
