<svg width="146" height="43" viewBox="0 0 146 43" fill="none" xmlns="http://www.w3.org/2000/svg">
<rect x="1.21036" y="0.749622" width="143.91" height="41.7254" rx="2.12885" fill="#373F4A" stroke="#373F4A" stroke-width="0.851538"/>
<path d="M46.6985 12.5157H42.8385L41.9936 14.3802H41.4692L44.5281 7.72346H45.0088L48.0823 14.3802H47.5579L46.6985 12.5157ZM46.5237 12.1079L44.8195 8.26241L43.0861 12.1079H46.5237Z" fill="white"/>
<path d="M52.8747 9.42773L50.6461 14.3802H50.1654L47.9368 9.42773H48.432L50.413 13.8704L52.4086 9.42773H52.8747Z" fill="white"/>
<path d="M57.3319 11.2339V14.3802H56.8804V13.5062C56.697 13.811 56.432 14.0584 56.1154 14.2205C55.7988 14.3827 55.4432 14.4531 55.0888 14.4239C53.9817 14.4239 53.2971 13.8558 53.2971 12.9673C53.2971 12.0788 53.7778 11.5107 55.1616 11.5107H56.8658V11.2194C56.8922 11.0218 56.8727 10.8209 56.8088 10.6322C56.7449 10.4434 56.6384 10.2719 56.4975 10.131C56.3566 9.99013 56.1852 9.8836 55.9964 9.81973C55.8077 9.75586 55.6067 9.73635 55.4092 9.76274C54.783 9.7525 54.1755 9.97578 53.705 10.3891L53.4573 10.0395C54.0176 9.57549 54.7255 9.32746 55.4529 9.34032C55.7084 9.30936 55.9675 9.33717 56.2106 9.42161C56.4537 9.50605 56.6743 9.6449 56.8555 9.82757C57.0368 10.0102 57.1739 10.2319 57.2565 10.4756C57.3391 10.7193 57.3649 10.9787 57.3319 11.2339ZM56.8658 12.9236V11.9768H55.1616C54.142 11.9768 53.7778 12.3992 53.7778 12.9673C53.7778 13.5354 54.2876 14.0161 55.1616 14.0161C55.5251 14.04 55.8868 13.9469 56.1935 13.7503C56.5002 13.5537 56.7358 13.2639 56.8658 12.9236Z" fill="white"/>
<path d="M59.138 7.82544C59.138 7.74765 59.1611 7.67162 59.2043 7.60694C59.2475 7.54226 59.3089 7.49186 59.3808 7.46209C59.4527 7.43232 59.5318 7.42453 59.608 7.43971C59.6843 7.45488 59.7544 7.49234 59.8094 7.54734C59.8644 7.60234 59.9019 7.67242 59.917 7.74871C59.9322 7.825 59.9244 7.90408 59.8947 7.97594C59.8649 8.04781 59.8145 8.10923 59.7498 8.15244C59.6851 8.19566 59.6091 8.21873 59.5313 8.21873C59.427 8.21873 59.327 8.17729 59.2532 8.10353C59.1795 8.02978 59.138 7.92974 59.138 7.82544ZM59.2837 9.42772H59.7644V14.3802H59.2837V9.42772Z" fill="white"/>
<path d="M61.7746 7.33018H62.2989V14.3802H61.8328L61.7746 7.33018Z" fill="white"/>
<path d="M67.8342 11.2339V14.3802H67.3826V13.5062C67.1992 13.811 66.9342 14.0584 66.6177 14.2205C66.3011 14.3827 65.9455 14.4531 65.591 14.4239C64.484 14.4239 63.7994 13.8558 63.7994 12.9673C63.7994 12.0788 64.28 11.5107 65.6638 11.5107H67.3681V11.2194C67.3945 11.0218 67.375 10.8209 67.3111 10.6322C67.2472 10.4434 67.1407 10.2719 66.9998 10.131C66.8589 9.99013 66.6874 9.8836 66.4986 9.81973C66.3099 9.75586 66.109 9.73635 65.9115 9.76274C65.2853 9.7525 64.6777 9.97578 64.2072 10.3891L63.9596 10.0395C64.5199 9.57549 65.2278 9.32746 65.9551 9.34032C66.2106 9.30936 66.4698 9.33717 66.7129 9.42161C66.9559 9.50605 67.1765 9.6449 67.3578 9.82757C67.5391 10.0102 67.6762 10.2319 67.7588 10.4756C67.8413 10.7193 67.8671 10.9787 67.8342 11.2339ZM67.3681 12.9236V11.9768H65.6638C64.6442 11.9768 64.28 12.3992 64.28 12.9673C64.28 13.5354 64.7899 14.0161 65.6638 14.0161C66.0274 14.04 66.389 13.9469 66.6957 13.7503C67.0024 13.5537 67.2381 13.2639 67.3681 12.9236Z" fill="white"/>
<path d="M74.7385 11.9768C74.7545 12.3058 74.7028 12.6346 74.5864 12.9427C74.4701 13.2509 74.2916 13.5318 74.0622 13.7681C73.8327 14.0044 73.5571 14.1911 73.2525 14.3164C72.9478 14.4417 72.6207 14.5031 72.2914 14.4967C71.8722 14.5075 71.4584 14.3998 71.0977 14.1859C70.7369 13.972 70.4439 13.6607 70.2521 13.2877V14.453H69.786V7.33018H70.2667V10.5202C70.4646 10.1587 70.7582 9.85872 71.1154 9.65316C71.4725 9.4476 71.8794 9.34439 72.2914 9.35487C72.6299 9.34731 72.9662 9.41136 73.2783 9.54284C73.5903 9.67432 73.8711 9.87025 74.1021 10.1178C74.3332 10.3653 74.5093 10.6589 74.619 10.9793C74.7286 11.2997 74.7694 11.6396 74.7385 11.9768ZM74.2578 11.9768C74.2815 11.6994 74.2473 11.4201 74.1574 11.1567C74.0675 10.8932 73.9239 10.6513 73.7356 10.4462C73.5473 10.2412 73.3184 10.0775 73.0636 9.9655C72.8087 9.85352 72.5334 9.7957 72.255 9.7957C71.9766 9.7957 71.7012 9.85352 71.4464 9.9655C71.1915 10.0775 70.9627 10.2412 70.7744 10.4462C70.5861 10.6513 70.4425 10.8932 70.3526 11.1567C70.2627 11.4201 70.2285 11.6994 70.2521 11.9768C70.2285 12.2542 70.2627 12.5334 70.3526 12.7969C70.4425 13.0604 70.5861 13.3023 70.7744 13.5073C70.9627 13.7124 71.1915 13.8761 71.4464 13.9881C71.7012 14.1001 71.9766 14.1579 72.255 14.1579C72.5334 14.1579 72.8087 14.1001 73.0636 13.9881C73.3184 13.8761 73.5473 13.7124 73.7356 13.5073C73.9239 13.3023 74.0675 13.0604 74.1574 12.7969C74.2473 12.5334 74.2815 12.2542 74.2578 11.9768Z" fill="white"/>
<path d="M76.2098 7.33018H76.6904V14.3802H76.2098V7.33018Z" fill="white"/>
<path d="M82.8809 11.9768H78.613C78.6374 12.3936 78.7849 12.7939 79.0366 13.127C79.2884 13.4601 79.6333 13.7111 80.0277 13.8482C80.422 13.9854 80.8482 14.0026 81.2524 13.8977C81.6565 13.7927 82.0205 13.5703 82.2983 13.2586L82.575 13.5791C82.3421 13.8413 82.0543 14.049 81.7321 14.1875C81.4099 14.3259 81.0611 14.3917 80.7106 14.3802C80.3827 14.3979 80.0547 14.3491 79.7462 14.2366C79.4377 14.1242 79.1552 13.9504 78.9156 13.7259C78.6761 13.5013 78.4845 13.2306 78.3524 12.93C78.2203 12.6294 78.1504 12.3051 78.1469 11.9768C78.1469 11.665 78.2083 11.3563 78.3276 11.0682C78.447 10.7801 78.6219 10.5184 78.8423 10.2979C79.0628 10.0775 79.3246 9.90257 79.6126 9.78326C79.9007 9.66394 80.2094 9.60252 80.5212 9.60252C80.833 9.60252 81.1417 9.66394 81.4298 9.78326C81.7179 9.90257 81.9796 10.0775 82.2001 10.2979C82.4205 10.5184 82.5955 10.7801 82.7148 11.0682C82.8341 11.3563 82.8955 11.665 82.8955 11.9768H82.8809ZM78.6276 11.5981H82.4294C82.3877 11.1227 82.1694 10.6801 81.8175 10.3577C81.4657 10.0353 81.0057 9.85648 80.5285 9.85648C80.0512 9.85648 79.5913 10.0353 79.2394 10.3577C78.8876 10.6801 78.6693 11.1227 78.6276 11.5981Z" fill="white"/>
<path d="M86.2602 11.9768C86.234 11.6346 86.2788 11.2908 86.3917 10.9667C86.5046 10.6427 86.6833 10.3455 86.9165 10.0938C87.1496 9.84206 87.4323 9.64122 87.7468 9.50387C88.0612 9.36651 88.4006 9.29562 88.7438 9.29562C89.0869 9.29562 89.4264 9.36651 89.7408 9.50387C90.0553 9.64122 90.3379 9.84206 90.5711 10.0938C90.8043 10.3455 90.9829 10.6427 91.0959 10.9667C91.2088 11.2908 91.2535 11.6346 91.2273 11.9768C91.2535 12.3189 91.2088 12.6628 91.0959 12.9868C90.9829 13.3108 90.8043 13.608 90.5711 13.8597C90.3379 14.1115 90.0553 14.3123 89.7408 14.4497C89.4264 14.587 89.0869 14.6579 88.7438 14.6579C88.4006 14.6579 88.0612 14.587 87.7468 14.4497C87.4323 14.3123 87.1496 14.1115 86.9165 13.8597C86.6833 13.608 86.5046 13.3108 86.3917 12.9868C86.2788 12.6628 86.234 12.3189 86.2602 11.9768ZM90.7466 11.9768C90.7466 11.4475 90.5364 10.9399 90.1621 10.5657C89.7879 10.1915 89.2803 9.9812 88.7511 9.9812C88.2218 9.9812 87.7142 10.1915 87.34 10.5657C86.9658 10.9399 86.7555 11.4475 86.7555 11.9768C86.7555 12.506 86.9658 13.0136 87.34 13.3878C87.7142 13.7621 88.2218 13.9723 88.7511 13.9723C89.2803 13.9723 89.7879 13.7621 90.1621 13.3878C90.5364 13.0136 90.7466 12.506 90.7466 11.9768Z" fill="white"/>
<path d="M97.1412 11.4815V14.3948H96.6605V11.4815C96.7033 11.2567 96.6925 11.025 96.6291 10.8051C96.5656 10.5852 96.4511 10.3834 96.2951 10.216C96.139 10.0486 95.9457 9.92032 95.7308 9.84157C95.516 9.76282 95.2856 9.73581 95.0583 9.76273C94.8024 9.74693 94.5461 9.78669 94.307 9.87929C94.0679 9.97189 93.8517 10.1151 93.6731 10.2992C93.4946 10.4832 93.3581 10.7037 93.2728 10.9455C93.1876 11.1873 93.1556 11.4447 93.1792 11.7V14.3802H92.6985V9.42771H93.1501V10.5202C93.3379 10.1639 93.625 9.86968 93.9766 9.6732C94.3282 9.47672 94.7292 9.38639 95.1311 9.41314C95.4054 9.39247 95.6809 9.43228 95.9382 9.52976C96.1954 9.62725 96.4281 9.78002 96.6198 9.9773C96.8116 10.1746 96.9576 10.4115 97.0477 10.6715C97.1378 10.9314 97.1697 11.2079 97.1412 11.4815Z" fill="white"/>
<path d="M104.002 14.0743C103.719 14.3169 103.354 14.442 102.982 14.4239C102.8 14.4421 102.616 14.4195 102.443 14.3578C102.271 14.2962 102.114 14.197 101.984 14.0674C101.855 13.9378 101.755 13.781 101.694 13.6084C101.632 13.4358 101.609 13.2516 101.628 13.0693V9.83557H100.725V9.42771H101.628V8.33525H102.108V9.42771H103.681V9.83557H102.108V13.0256C102.108 13.6665 102.429 14.0161 103.026 14.0161C103.309 14.0231 103.584 13.9245 103.798 13.7393L104.002 14.0743Z" fill="white"/>
<path d="M109.77 11.4815V14.3948H109.29V11.4815C109.333 11.2554 109.322 11.0221 109.258 10.801C109.193 10.5798 109.078 10.3771 108.92 10.2094C108.762 10.0416 108.567 9.91368 108.35 9.83604C108.133 9.75841 107.901 9.73328 107.673 9.76273C107.417 9.74693 107.161 9.78669 106.921 9.87929C106.682 9.97189 106.466 10.1151 106.288 10.2992C106.109 10.4832 105.973 10.7037 105.887 10.9455C105.802 11.1873 105.77 11.4447 105.794 11.7V14.3802H105.328V7.33018H105.794V10.5202C105.981 10.1716 106.264 9.8845 106.611 9.69329C106.957 9.50207 107.351 9.41491 107.746 9.44227C108.018 9.42251 108.291 9.46183 108.547 9.55753C108.802 9.65323 109.034 9.80305 109.226 9.99673C109.419 10.1904 109.567 10.4234 109.661 10.6797C109.755 10.9359 109.792 11.2095 109.77 11.4815Z" fill="white"/>
<path d="M115.917 11.9768H111.649C111.674 12.3936 111.821 12.7939 112.073 13.127C112.325 13.4601 112.669 13.7111 113.064 13.8482C113.458 13.9854 113.884 14.0026 114.289 13.8977C114.693 13.7927 115.057 13.5703 115.334 13.2586L115.611 13.5791C115.378 13.8413 115.091 14.049 114.768 14.1875C114.446 14.3259 114.097 14.3917 113.747 14.3802C113.419 14.3959 113.092 14.3456 112.785 14.2324C112.477 14.1192 112.195 13.9453 111.956 13.7212C111.717 13.497 111.525 13.2271 111.393 12.9274C111.26 12.6278 111.189 12.3045 111.183 11.9768C111.183 11.665 111.245 11.3563 111.364 11.0682C111.483 10.7801 111.658 10.5184 111.879 10.2979C112.099 10.0775 112.361 9.90257 112.649 9.78326C112.937 9.66394 113.246 9.60252 113.557 9.60252C113.869 9.60252 114.178 9.66394 114.466 9.78326C114.754 9.90257 115.016 10.0775 115.236 10.2979C115.457 10.5184 115.632 10.7801 115.751 11.0682C115.87 11.3563 115.932 11.665 115.932 11.9768H115.917ZM111.664 11.5981H115.466C115.424 11.1227 115.206 10.6801 114.854 10.3577C114.502 10.0353 114.042 9.85648 113.565 9.85648C113.087 9.85648 112.628 10.0353 112.276 10.3577C111.924 10.6801 111.705 11.1227 111.664 11.5981Z" fill="white"/>
<path d="M49.0437 26.0477H50.9955V30.4176C49.7415 31.3757 48.2038 31.8882 46.6257 31.8742C45.689 31.8262 44.7785 31.5488 43.9742 31.0664C43.1698 30.584 42.4964 29.9114 42.0129 29.1077C41.5295 28.304 41.251 27.3938 41.2019 26.4572C41.1527 25.5206 41.3344 24.5863 41.731 23.7364C42.1277 22.8865 42.727 22.147 43.4764 21.5831C44.2258 21.0191 45.1023 20.648 46.0288 20.5022C46.9553 20.3565 47.9034 20.4406 48.7898 20.7472C49.6762 21.0538 50.4736 21.5734 51.1121 22.2605L49.8157 23.5278C49.4211 23.1166 48.9455 22.7916 48.419 22.5735C47.8926 22.3554 47.3265 22.2488 46.7568 22.2605C45.7214 22.2605 44.7285 22.6718 43.9964 23.4039C43.2643 24.136 42.853 25.1289 42.853 26.1642C42.853 27.1996 43.2643 28.1925 43.9964 28.9246C44.7285 29.6567 45.7214 30.068 46.7568 30.068C47.5581 30.0872 48.3492 29.8856 49.0437 29.4853V26.0477Z" fill="white"/>
<path d="M52.8164 27.4898C52.7874 26.5911 53.0274 25.7041 53.5056 24.9427C53.9838 24.1812 54.6785 23.5798 55.5006 23.2156C56.3227 22.8514 57.2349 22.7409 58.1202 22.8983C59.0055 23.0558 59.8236 23.4739 60.4698 24.0993C61.1159 24.7246 61.5607 25.5286 61.747 26.4082C61.9334 27.2879 61.8529 28.2032 61.5158 29.0368C61.1788 29.8704 60.6005 30.5844 59.8551 31.0873C59.1097 31.5902 58.2311 31.8592 57.3319 31.8596C56.7423 31.8941 56.1519 31.8058 55.5982 31.6003C55.0444 31.3948 54.5394 31.0767 54.1149 30.6659C53.6905 30.2552 53.3559 29.7608 53.1324 29.2141C52.9089 28.6674 52.8013 28.0802 52.8164 27.4898ZM59.8519 27.4898C59.8519 26.8214 59.5864 26.1805 59.1138 25.7079C58.6412 25.2353 58.0003 24.9698 57.3319 24.9698C56.6636 24.9698 56.0226 25.2353 55.55 25.7079C55.0775 26.1805 54.812 26.8214 54.812 27.4898C54.812 28.1581 55.0775 28.7991 55.55 29.2716C56.0226 29.7442 56.6636 30.0097 57.3319 30.0097C58.0003 30.0097 58.6412 29.7442 59.1138 29.2716C59.5864 28.7991 59.8519 28.1581 59.8519 27.4898Z" fill="white"/>
<path d="M63.0565 27.4898C63.0275 26.5904 63.2678 25.7029 63.7466 24.9411C64.2255 24.1793 64.921 23.5779 65.744 23.2141C66.567 22.8503 67.4799 22.7407 68.3656 22.8993C69.2514 23.0579 70.0695 23.4775 70.7151 24.1043C71.3607 24.7311 71.8043 25.5365 71.989 26.4171C72.1737 27.2978 72.0911 28.2135 71.7518 29.0469C71.4125 29.8803 70.8319 30.5933 70.0846 31.0944C69.3373 31.5956 68.4573 31.862 67.5574 31.8596C66.969 31.892 66.3802 31.8021 65.8282 31.5957C65.2762 31.3893 64.7729 31.0708 64.3501 30.6603C63.9272 30.2498 63.594 29.7561 63.3714 29.2104C63.1487 28.6648 63.0415 28.0789 63.0565 27.4898ZM70.092 27.4898C70.092 26.8214 69.8265 26.1805 69.3539 25.7079C68.8813 25.2353 68.2403 24.9698 67.572 24.9698C66.9037 24.9698 66.2627 25.2353 65.7901 25.7079C65.3175 26.1805 65.0521 26.8214 65.0521 27.4898C65.0521 28.1581 65.3175 28.799 65.7901 29.2716C66.2627 29.7442 66.9037 30.0097 67.572 30.0097C68.2403 30.0097 68.8813 29.7442 69.3539 29.2716C69.8265 28.799 70.092 28.1581 70.092 27.4898Z" fill="white"/>
<path d="M82.4002 23.251V30.4467C82.4002 33.5202 80.798 34.9185 77.8265 34.9185C76.3568 34.9799 74.9079 34.555 73.7042 33.7095L74.5928 32.2529C75.499 32.9208 76.5988 33.2738 77.7245 33.258C79.5889 33.258 80.4192 32.4131 80.4192 30.6943V30.2428C80.0536 30.623 79.6112 30.9209 79.1214 31.1168C78.6317 31.3127 78.1058 31.4021 77.5788 31.3789C76.4933 31.3789 75.4522 30.9477 74.6846 30.1801C73.917 29.4125 73.4857 28.3714 73.4857 27.2858C73.4857 26.2003 73.917 25.1592 74.6846 24.3916C75.4522 23.624 76.4933 23.1927 77.5788 23.1927C78.1249 23.1669 78.6698 23.2633 79.1738 23.475C79.6778 23.6867 80.1282 24.0083 80.4921 24.4163V23.2801L82.4002 23.251ZM80.4484 27.2421C80.4805 26.726 80.3567 26.2121 80.0929 25.7672C79.8292 25.3223 79.4378 24.9671 78.9696 24.7475C78.5013 24.528 77.9779 24.4544 77.4672 24.5362C76.9566 24.618 76.4823 24.8515 76.1061 25.2063C75.7299 25.5612 75.4691 26.021 75.3576 26.526C75.246 27.031 75.289 27.5578 75.4808 28.0381C75.6726 28.5184 76.0044 28.9299 76.4331 29.2191C76.8618 29.5084 77.3676 29.662 77.8847 29.6601C78.2153 29.6844 78.5473 29.6396 78.8596 29.5287C79.1719 29.4177 79.4577 29.2429 79.6989 29.0155C79.94 28.7881 80.1311 28.513 80.2602 28.2077C80.3892 27.9024 80.4533 27.5735 80.4484 27.2421Z" fill="white"/>
<path d="M85.0076 19.9591H87.0614V31.7285H85.0804L85.0076 19.9591Z" fill="white"/>
<path d="M97.5346 28.1307H90.8778C91.0075 28.7476 91.3599 29.2951 91.8678 29.6686C92.3756 30.0421 93.0033 30.2154 93.6308 30.1554C94.057 30.1696 94.4815 30.0954 94.8776 29.9375C95.2737 29.7795 95.6328 29.5413 95.9323 29.2377L96.9956 30.4613C96.3565 31.0967 95.5501 31.5378 94.6703 31.7333C93.7904 31.9288 92.8732 31.8706 92.025 31.5655C91.1769 31.2604 90.4328 30.721 89.879 30.0098C89.3253 29.2987 88.9847 28.445 88.8968 27.548C88.8743 26.9681 88.9719 26.3898 89.1836 25.8495C89.3952 25.3091 89.7163 24.8183 90.1266 24.408C90.537 23.9976 91.0278 23.6765 91.5681 23.4649C92.1085 23.2533 92.6868 23.1556 93.2667 23.1782C93.8428 23.1547 94.4175 23.2523 94.9536 23.4648C95.4896 23.6773 95.9751 23.9999 96.3787 24.4117C96.7823 24.8235 97.095 25.3155 97.2966 25.8557C97.4982 26.3959 97.5842 26.9725 97.5491 27.548C97.5637 27.6937 97.5491 27.9996 97.5346 28.1307ZM90.8633 26.8051H95.6701C95.6077 26.2232 95.3259 25.687 94.8822 25.3054C94.4384 24.9239 93.8659 24.7257 93.2813 24.7513C92.6942 24.7286 92.12 24.927 91.6723 25.3073C91.2245 25.6876 90.9358 26.2222 90.8633 26.8051Z" fill="white"/>
<path d="M113.281 24.5765C113.281 27.0091 111.474 28.5239 108.547 28.5239H106.041V31.7285H103.987V20.6145H108.547C111.533 20.6145 113.281 22.1731 113.281 24.5765ZM111.198 24.5765C111.198 23.1199 110.265 22.3625 108.459 22.3625H106.041V26.7323H108.459C110.367 26.776 111.256 25.9603 111.256 24.5765H111.198Z" fill="white"/>
<path d="M115.378 19.9591H117.359V31.7285H115.378V19.9591Z" fill="white"/>
<path d="M127.06 26.7615V31.7285H125.181V30.6943C124.87 31.095 124.462 31.4105 123.996 31.6117C123.53 31.8128 123.021 31.8931 122.516 31.845C120.578 31.845 119.355 30.7817 119.355 29.296C119.355 27.8102 120.316 26.776 122.88 26.776H125.079V26.6449C125.079 25.4942 124.38 24.8096 122.967 24.8096C122.038 24.799 121.132 25.096 120.389 25.6544L119.617 24.1978C120.672 23.4831 121.927 23.1211 123.2 23.1636C125.647 23.1636 127.06 24.3143 127.06 26.7615ZM125.079 29.0775V28.087H123.025C121.671 28.087 121.307 28.5968 121.307 29.2231C121.307 29.8495 121.918 30.3884 122.923 30.3884C123.375 30.4218 123.825 30.3134 124.211 30.0784C124.598 29.8434 124.901 29.4934 125.079 29.0775Z" fill="white"/>
<path d="M137.373 23.251L133.411 32.3694C133.232 33.0979 132.809 33.7435 132.213 34.1991C131.617 34.6547 130.884 34.8931 130.134 34.8748C129.31 34.8851 128.508 34.6126 127.861 34.1028L128.662 32.6461C129.055 33.0217 129.576 33.235 130.119 33.2434C130.818 33.2434 131.226 32.9083 131.576 32.0635L131.707 31.7285L128.022 23.2218H130.075L132.741 29.4853L135.421 23.2218L137.373 23.251Z" fill="white"/>
<path d="M36.8373 21.0661L31.5061 17.9927L27.1362 22.2314L31.1419 26.106L36.8519 22.8141C37.0063 22.7263 37.1348 22.5992 37.2242 22.4457C37.3135 22.2922 37.3606 22.1177 37.3606 21.9401C37.3606 21.7624 37.3135 21.588 37.2242 21.4345C37.1348 21.2809 37.0063 21.1538 36.8519 21.0661H36.8373Z" fill="white"/>
<path d="M30.603 17.4682L24.7328 14.0743L11.8709 7.49042L26.3934 21.5322L30.603 17.4682Z" fill="white"/>
<path d="M12.0894 36.7684L24.7474 29.7912L30.2243 26.6303L26.3934 22.9305L12.0894 36.7684Z" fill="white"/>
<path d="M11.0115 8.05849L10.9969 36.4188L25.6796 22.2314L11.0115 8.05849Z" fill="white"/>
</svg>
